{
  "accessors": [
    {
      "bufferView": 2,
      "componentType": 5126,
      "count": 40045,
      "max": [
        3.5407199859619141,
        1.5701800584793091,
        2.4412400722503662
      ],
      "min": [
        -4.0588798522949219,
        -2.5841600894927979,
        -2.7092900276184082
      ],
      "type": "VEC3"
    },
    {
      "bufferView": 2,
      "byteOffset": 480540,
      "componentType": 5126,
      "count": 40045,
      "max": [
        0.99951845407485962,
        0.99859952926635742,
        0.99994868040084839
      ],
      "min": [
        -0.99987632036209106,
        -0.99999815225601196,
        -0.99988240003585815
      ],
      "type": "VEC3"
    },
    {
      "bufferView": 3,
      "componentType": 5126,
      "count": 40045,
      "max": [
        0.99997717142105103,
        0.99994498491287231,
        0.99999195337295532,
        1
      ],
      "min": [
        -0.99999004602432251,
        -0.99812746047973633,
        -0.99999958276748657,
        -1
      ],
      "type": "VEC4"
    },
    {
      "bufferView": 1,
      "componentType": 5126,
      "count": 40045,
      "max": [
        0.99927002191543579,
        0.99835997819900513
      ],
      "min": [
        0,
        0
      ],
      "type": "VEC2"
    },
    {
      "bufferView": 0,
      "componentType": 5125,
      "count": 146295,
      "max": [
        40044
      ],
      "min": [
        0
      ],
      "type": "SCALAR"
    }
  ],
  "asset": {
    "extras": {
      "author": "CGGeek (https://sketchfab.com/webhead)",
      "license": "CC-BY-4.0 (http://creativecommons.org/licenses/by/4.0/)",
      "source": "https://sketchfab.com/models/8a935c2b04dd4925acb4bf6aed24b60a",
      "title": "Tree Stump 3D Scan"
    },
    "generator": "Sketchfab-3.29.4",
    "version": "2.0"
  },
  "bufferViews": [
    {
      "buffer": 0,
      "byteLength": 585180,
      "byteOffset": 0,
      "name": "floatBufferViews",
      "target": 34963
    },
    {
      "buffer": 0,
      "byteLength": 320360,
      "byteOffset": 585180,
      "byteStride": 8,
      "name": "floatBufferViews",
      "target": 34962
    },
    {
      "buffer": 0,
      "byteLength": 961080,
      "byteOffset": 905540,
      "byteStride": 12,
      "name": "floatBufferViews",
      "target": 34962
    },
    {
      "buffer": 0,
      "byteLength": 640720,
      "byteOffset": 1866620,
      "byteStride": 16,
      "name": "floatBufferViews",
      "target": 34962
    }
  ],
  "buffers": [
    {
      "byteLength": 2507340,
      "uri": "scene.bin"
    }
  ],
  "extensionsRequired": [
    "KHR_materials_pbrSpecularGlossiness"
  ],
  "extensionsUsed": [
    "KHR_materials_pbrSpecularGlossiness"
  ],
  "images": [
    {
      "uri": "textures/Stump_normal.png"
    },
    {
      "uri": "textures/Stump_diffuse.jpeg"
    },
    {
      "uri": "textures/Stump_specularGlossiness.png"
    }
  ],
  "materials": [
    {
      "doubleSided": true,
      "extensions": {
        "KHR_materials_pbrSpecularGlossiness": {
          "diffuseFactor": [
            1,
            1,
            1,
            1
          ],
          "diffuseTexture": {
            "index": 1,
            "texCoord": 0
          },
          "glossinessFactor": 0.79560606990000005,
          "specularFactor": [
            0.76530303960000001,
            0.76530303960000001,
            0.76530303960000001
          ],
          "specularGlossinessTexture": {
            "index": 2,
            "texCoord": 0
          }
        }
      },
      "name": "Stump",
      "normalTexture": {
        "index": 0,
        "scale": 0.79560606990000005,
        "texCoord": 0
      }
    }
  ],
  "meshes": [
    {
      "name": "Stump_object.001_0",
      "primitives": [
        {
          "attributes": {
            "NORMAL": 1,
            "POSITION": 0,
            "TANGENT": 2,
            "TEXCOORD_0": 3
          },
          "indices": 4,
          "material": 0,
          "mode": 4
        }
      ]
    }
  ],
  "nodes": [
    {
      "children": [
        1
      ],
      "name": "RootNode (gltf orientation matrix)",
      "rotation": [
        -0.70710678118654746,
        -0,
        -0,
        0.70710678118654757
      ]
    },
    {
      "children": [
        2
      ],
      "name": "RootNode (model correction matrix)"
    },
    {
      "children": [
        3
      ],
      "name": "Root"
    },
    {
      "children": [
        4
      ],
      "matrix": [
        -0.71465000000000012,
        0.6890900000000002,
        0.12011000000000001,
        0,
        -0.030210000000000004,
        0.14114000000000002,
        -0.98952999999999991,
        0,
        -0.69883000000000017,
        -0.7108000000000001,
        -0.08005000000000001,
        0,
        -0.078220000000000026,
        -0.95008000000000004,
        0.030490000000000007,
        1
      ],
      "name": "Stump_object.001"
    },
    {
      "mesh": 0,
      "name": "Stump_object.001_0"
    }
  ],
  "samplers": [
    {
      "magFilter": 9729,
      "minFilter": 9987,
      "wrapS": 10497,
      "wrapT": 10497
    }
  ],
  "scene": 0,
  "scenes": [
    {
      "name": "OSG_Scene",
      "nodes": [
        0
      ]
    }
  ],
  "textures": [
    {
      "sampler": 0,
      "source": 0
    },
    {
      "sampler": 0,
      "source": 1
    },
    {
      "sampler": 0,
      "source": 2
    }
  ]
}

