mtllib CubeMur01.mtl

v -3.6781309233902E-06 1 -0.999999580342376
v -3.6781309233902E-06 1 4.19657623984548E-07
v 0.999996321869077 1 4.19657623984548E-07
v 0.999996321869077 1 -0.999999580342376
v -3.6781309233902E-06 -2.2204451174232E-16 -0.999999580342376
v 0.999996321869077 -2.2204451174232E-16 -0.999999580342376
v 0.999996321869077 9.31827113707302E-23 4.19657624206593E-07
v -3.6781309233902E-06 9.31827113707302E-23 4.19657624206593E-07
v -3.6781309233902E-06 1 4.19657623984548E-07
v -3.6781309233902E-06 1 -0.999999580342376
v -3.6781309233902E-06 -2.2204451174232E-16 -0.999999580342376
v -3.6781309233902E-06 9.31827113707302E-23 4.19657624206593E-07
v 0.999996321869077 1 4.19657623984548E-07
v -3.6781309233902E-06 1 4.19657623984548E-07
v -3.6781309233902E-06 9.31827113707302E-23 4.19657624206593E-07
v 0.999996321869077 9.31827113707302E-23 4.19657624206593E-07
v 0.999996321869077 1 -0.999999580342376
v 0.999996321869077 1 4.19657623984548E-07
v 0.999996321869077 9.31827113707302E-23 4.19657624206593E-07
v 0.999996321869077 -2.2204451174232E-16 -0.999999580342376
v -3.6781309233902E-06 1 -0.999999580342376
v 0.999996321869077 1 -0.999999580342376
v 0.999996321869077 -2.2204451174232E-16 -0.999999580342376
v -3.6781309233902E-06 -2.2204451174232E-16 -0.999999580342376
v 3.28083621688219 2.77480459213257 -1.42762142177303
v 3.28083621688219 2.77480459213257 0.453834953349037
v 4.28083621688219 2.77480459213257 0.453834953349037
v 4.28083621688219 2.77480459213257 -1.42762142177303
v 3.28083621688219 -3.16995634580105E-16 -1.42762142177303
v 4.28083621688219 -3.16995634580105E-16 -1.42762142177303
v 4.28083621688219 1.00771602917557E-16 0.453834953349038
v 3.28083621688219 1.00771602917557E-16 0.453834953349038
v 3.28083621688219 2.77480459213257 0.453834953349037
v 3.28083621688219 2.77480459213257 -1.42762142177303
v 3.28083621688219 -3.16995634580105E-16 -1.42762142177303
v 3.28083621688219 1.00771602917557E-16 0.453834953349038
v 4.28083621688219 2.77480459213257 0.453834953349037
v 3.28083621688219 2.77480459213257 0.453834953349037
v 3.28083621688219 1.00771602917557E-16 0.453834953349038
v 4.28083621688219 1.00771602917557E-16 0.453834953349038
v 4.28083621688219 2.77480459213257 -1.42762142177303
v 4.28083621688219 2.77480459213257 0.453834953349037
v 4.28083621688219 1.00771602917557E-16 0.453834953349038
v 4.28083621688219 -3.16995634580105E-16 -1.42762142177303
v 3.28083621688219 2.77480459213257 -1.42762142177303
v 4.28083621688219 2.77480459213257 -1.42762142177303
v 4.28083621688219 -3.16995634580105E-16 -1.42762142177303
v 3.28083621688219 -3.16995634580105E-16 -1.42762142177303
v -1.36823642253876 -7.3679579139433E-16 -3.31823325157166
v 5.19344329833984 -7.3679579139433E-16 -3.31823325157166
v 5.19344329833984 6.56167984008789 -3.31823325157166
v -1.36823642253876 6.56167984008789 -3.31823325157166
v -1.36823642253876 -9.11634138438136E-16 -4.10563516616821
v -1.36823642253876 6.56167984008789 -4.10563516616821
v 5.19344329833984 6.56167984008789 -4.10563516616821
v 5.19344329833984 -9.11634138438136E-16 -4.10563516616821
v 5.19344329833984 -7.3679579139433E-16 -3.31823325157166
v -1.36823642253876 -7.3679579139433E-16 -3.31823325157166
v -1.36823642253876 -9.11634138438136E-16 -4.10563516616821
v 5.19344329833984 -9.11634138438136E-16 -4.10563516616821
v 5.19344329833984 6.56167984008789 -3.31823325157166
v 5.19344329833984 -7.3679579139433E-16 -3.31823325157166
v 5.19344329833984 -9.11634138438136E-16 -4.10563516616821
v 5.19344329833984 6.56167984008789 -4.10563516616821
v -1.36823642253876 6.56167984008789 -3.31823325157166
v 5.19344329833984 6.56167984008789 -3.31823325157166
v 5.19344329833984 6.56167984008789 -4.10563516616821
v -1.36823642253876 6.56167984008789 -4.10563516616821
v -1.36823642253876 -7.3679579139433E-16 -3.31823325157166
v -1.36823642253876 6.56167984008789 -3.31823325157166
v -1.36823642253876 6.56167984008789 -4.10563516616821
v -1.36823642253876 -9.11634138438136E-16 -4.10563516616821

vt -20.9012804145177 -10.7186494064195
vt -20.9012804145177 -11.0519827397528
vt -20.8179470811844 -11.0519827397528
vt -20.8179470811844 -10.7186494064195
vt -20.9012804145177 10.7186494064195
vt -20.8179470811844 10.7186494064195
vt -20.8179470811844 11.0519827397528
vt -20.9012804145177 11.0519827397528
vt 2.7629956849382 0.333333333333333
vt 2.67966235160487 0.333333333333333
vt 2.67966235160487 0
vt 2.7629956849382 0
vt -20.9846137478511 0.333333333333333
vt -21.0679470811844 0.333333333333333
vt -21.0679470811844 0
vt -20.9846137478511 0
vt -2.67966235160487 0.333333333333333
vt -2.7629956849382 0.333333333333333
vt -2.7629956849382 0
vt -2.67966235160487 0
vt 21.0679470811844 0.333333333333333
vt 20.9846137478511 0.333333333333333
vt 20.9846137478511 0
vt 21.0679470811844 0
vt -152.858526139693 -4.83539712156139
vt -152.858526139693 -5.122130768682
vt -152.249079720191 -5.122130768682
vt -152.249079720191 -4.83539712156139
vt -152.858526139693 4.83539712156139
vt -152.249079720191 4.83539712156139
vt -152.249079720191 5.122130768682
vt -152.858526139693 5.122130768682
vt 20.4833612676885 0.422880222596058
vt 19.3367156339058 0.422880222596058
vt 19.3367156339058 0
vt 20.4833612676885 0
vt -153.467972559195 0.422880222596058
vt -154.077418978697 0.422880222596058
vt -154.077418978697 0
vt -153.467972559195 0
vt -19.3367156339058 0.422880222596058
vt -20.4833612676885 0.422880222596058
vt -20.4833612676885 0
vt -19.3367156339058 0
vt 154.077418978697 0.422880222596058
vt 153.467972559195 0.422880222596058
vt 153.467972559195 0
vt 154.077418978697 0
vt 3.38395977905748E-17 0
vt 1 0
vt 1 1.000002000004
vt 3.38395977905748E-17 1.000002000004
vt 0 0
vt 0 2
vt -2.000004000008 2
vt -2.000004000008 0
vt 6.56167979002625 0.393700787401574
vt 1.6548663101902E-16 0.393700787401575
vt 5.65579739060098E-17 -0.393700787401575
vt 6.56167979002625 -0.393700787401575
vt -0.393700787401569 6.56167979002625
vt -0.393700787401569 0
vt 0.39370078740158 0
vt 0.39370078740158 6.56167979002625
vt 0 -0.393700787401575
vt 6.56167979002625 -0.393700787401574
vt 6.56167979002625 0.393700787401575
vt 0 0.393700787401575
vt 0.393700787401575 0
vt 0.393700787401575 6.56167979002625
vt -0.393700787401575 6.56167979002625
vt -0.393700787401575 0

vn 0 1 0
vn 0 -1 0
vn -1 0 0
vn 0 0 1
vn 1 0 0
vn 0 0 -1
vn 0 1 0
vn 0 -1 0
vn -1 0 0
vn 0 0 1
vn 1 0 0
vn 0 0 -1
vn -3.2403025168647E-15 0 1
vn 3.2403025168647E-15 0 -1
vn 0 -1 0
vn 1 0 4.511946304314E-15
vn 0 1 0
vn -1 0 -3.10196319009499E-15

g UNITY_Plancher_Bois_Gris_90deg
usemtl UNITY_Plancher_Bois_Gris_90deg
f 4/4/1 1/1/1 2/2/1
f 2/2/1 3/3/1 4/4/1
g UNITY_Plancher_Bois_Gris_90deg
usemtl UNITY_Plancher_Bois_Gris_90deg
f 7/7/2 8/8/2 5/5/2
f 5/5/2 6/6/2 7/7/2
g UNITY_Plancher_Bois_Gris_90deg
usemtl UNITY_Plancher_Bois_Gris_90deg
f 9/9/3 10/10/3 11/11/3
f 11/11/3 12/12/3 9/9/3
g UNITY_Plancher_Bois_Gris_90deg
usemtl UNITY_Plancher_Bois_Gris_90deg
f 13/13/4 14/14/4 15/15/4
f 15/15/4 16/16/4 13/13/4
g UNITY_Plancher_Bois_Gris_90deg
usemtl UNITY_Plancher_Bois_Gris_90deg
f 17/17/5 18/18/5 19/19/5
f 19/19/5 20/20/5 17/17/5
g UNITY_Plancher_Bois_Gris_90deg
usemtl UNITY_Plancher_Bois_Gris_90deg
f 21/21/6 22/22/6 23/23/6
f 23/23/6 24/24/6 21/21/6
g UNITY_Teak
usemtl UNITY_Teak
f 28/28/7 25/25/7 27/27/7
f 26/26/7 27/27/7 25/25/7
g UNITY_Teak
usemtl UNITY_Teak
f 31/31/8 32/32/8 30/30/8
f 29/29/8 30/30/8 32/32/8
g UNITY_Teak
usemtl UNITY_Teak
f 33/33/9 34/34/9 36/36/9
f 35/35/9 36/36/9 34/34/9
g UNITY_Teak
usemtl UNITY_Teak
f 37/37/10 38/38/10 39/39/10
f 39/39/10 40/40/10 37/37/10
g UNITY_Teak
usemtl UNITY_Teak
f 41/41/11 42/42/11 44/44/11
f 43/43/11 44/44/11 42/42/11
g UNITY_Teak
usemtl UNITY_Teak
f 45/45/12 46/46/12 47/47/12
f 47/47/12 48/48/12 45/45/12
g UNITY_Beton
usemtl UNITY_Beton
f 52/52/13 49/49/13 50/50/13
f 50/50/13 51/51/13 52/52/13
g UNITY_Brique
usemtl UNITY_Brique
f 55/55/14 56/56/14 53/53/14
f 53/53/14 54/54/14 55/55/14
g Mur_par_défaut
usemtl Mur_par_défaut
f 57/57/15 58/58/15 59/59/15
f 59/59/15 60/60/15 57/57/15
g Mur_par_défaut
usemtl Mur_par_défaut
f 61/61/16 62/62/16 63/63/16
f 63/63/16 64/64/16 61/61/16
g Mur_par_défaut
usemtl Mur_par_défaut
f 65/65/17 66/66/17 68/68/17
f 67/67/17 68/68/17 66/66/17
g Mur_par_défaut
usemtl Mur_par_défaut
f 69/69/18 70/70/18 71/71/18
f 71/71/18 72/72/18 69/69/18
